# xmcd
#
# Track frame offsets:
#	150
#	3399
#	20768
#	22826
#	40474
#	64432
#	89147
#	108413
#	125892
#	138946
#	144768
#	152990
#	162530
#	168096
#	172706
#	180396
#	204041
#	218522
#	225062
#	234173
#	237202
#	247594
#	249951
#	260420
#	272502
#	284274
#	306727
#	323884
#	348971
#
# Disc length: 4719 seconds
#
# Revision: 0
# Processed by: cddbd v1.5.2PL0 Copyright (c) Steve Scherf et al.
# Submitted via: audiograbber 1.83.01
#
DISCID=80126d1d
DTITLE=Various Artist - Chris Barber Presents Lost and Found Vol.3
DYEAR=1964
DGENRE=Blues
TTITLE0=Chris Barber introduces Sonny Boy Williamson
TTITLE1=United blues - Help me
TTITLE2=Chris Barber introduces the 'C-Jam Blues'
TTITLE3=C-Jam Blues
TTITLE4=So sad to be lonesome
TTITLE5=Take a walk with me
TTITLE6=Bye bye bird
TTITLE7=Your funeral, my trial
TTITLE8=Pontiac blues
TTITLE9=Pontiac blues (Reprise)
TTITLE10=When the Saints go marching in
TTITLE11=The little light of mine
TTITLE12=When the Saints go marching in (Reprise)
TTITLE13=Chris Barber introduces Jimmy Witherspoon
TTITLE14=Times getting thougher than tough
TTITLE15=Have you ever loved a woman?
TTITLE16=Roll 'em Pete
TTITLE17=Chris Barber introduces Howlin' Wolf
TTITLE18=Howlin' for my baby
TTITLE19=Chris Barber introduces Hubert Sumlin
TTITLE20=Dust my broom
TTITLE21=Chris Barber introduction
TTITLE22=May I have a talk with you
TTITLE23=Take a walk with me
TTITLE24=Everyday I have the blues
TTITLE25=Tain't nobody's buisiness
TTITLE26=When the Saints go marching in
TTITLE27=When I've been drinkin'
TTITLE28=Goodbye, goodbye, goodbye
EXTD=
EXTT0=
EXTT1=
EXTT2=
EXTT3=
EXTT4=
EXTT5=
EXTT6=
EXTT7=
EXTT8=
EXTT9=
EXTT10=
EXTT11=
EXTT12=
EXTT13=
EXTT14=
EXTT15=
EXTT16=
EXTT17=
EXTT18=
EXTT19=
EXTT20=
EXTT21=
EXTT22=
EXTT23=
EXTT24=
EXTT25=
EXTT26=
EXTT27=
EXTT28=
PLAYORDER=
